# xmcd
#
# Track frame offsets:
#	150
#	5553
#	16503
#	30476
#
# Disc length: 586 seconds
#
# Revision: 1
# Processed by: cddbd v1.5.1PL0 Copyright (c) Steve Scherf et al.
# Submitted via: audiograbber 1.82.01
#
DISCID=1b024804
DTITLE=Cucumber Farmer - U.S.A.
DYEAR=1900
DGENRE=
TTITLE0=U.S.A.
TTITLE1=Formula 3000
TTITLE2=Raisio
TTITLE3=4
EXTD=
EXTT0=
EXTT1=
EXTT2=
EXTT3=
PLAYORDER=
